<mxfile host="app.diagrams.net" modified="2024-05-13T18:28:30.734Z" agent="Mozilla/5.0 (Windows NT 10.0; Win64; x64) AppleWebKit/537.36 (KHTML, like Gecko) Chrome/124.0.0.0 Safari/537.36 Edg/124.0.0.0" version="24.4.0" etag="QIT5mZzz6JQvldr8GII0" type="github">
  <diagram name="Page-1" id="yrF1gYvB7VGhC3zZBgBD">
    <mxGraphModel>
      <root>
        <mxCell id="0" />
        <mxCell id="1" parent="0" />
      </root>
    </mxGraphModel>
  </diagram>
</mxfile>
